<svg width="1280" height="400" viewBox="0 0 1280 400" xmlns="http://www.w3.org/2000/svg">
  <defs>
    <radialGradient id="soft" cx="0.5" cy="0.5" r="0.5">
      <stop offset="0" stop-color="#6FE7CE" stop-opacity="0.14"/><stop offset="1" stop-color="#6FE7CE" stop-opacity="0"/>
    </radialGradient>
    <radialGradient id="sphere" cx="0.34" cy="0.3" r="0.75">
      <stop offset="0" stop-color="#101B26"/><stop offset="0.45" stop-color="#0A131D"/>
      <stop offset="0.82" stop-color="#060E16"/><stop offset="1" stop-color="#04080D"/>
    </radialGradient>
    <radialGradient id="core" cx="0.5" cy="0.5" r="0.5">
      <stop offset="0" stop-color="#6FE7CE" stop-opacity="0.55"/><stop offset="1" stop-color="#6FE7CE" stop-opacity="0"/>
    </radialGradient>
    <linearGradient id="rimg" x1="0" y1="0" x2="1" y2="1">
      <stop offset="0" stop-color="#6FE7CE" stop-opacity="0"/><stop offset="0.42" stop-color="#6FE7CE" stop-opacity="0.05"/>
      <stop offset="0.78" stop-color="#6FE7CE" stop-opacity="0.85"/><stop offset="1" stop-color="#6FE7CE" stop-opacity="0"/>
    </linearGradient>
    <filter id="amb" x="-60%" y="-60%" width="220%" height="220%"><feGaussianBlur stdDeviation="46"/></filter>
  </defs>
  <rect width="1280" height="400" fill="#05070A"/>
  <ellipse cx="940" cy="200" rx="250" ry="240" fill="url(#soft)" filter="url(#amb)"/>
  <line x1="56" y1="84" x2="1224" y2="84" stroke="#202830" stroke-width="1"/>
  <text x="56" y="64" font-family="ui-monospace, Consolas, monospace" font-size="13" letter-spacing="3" fill="#3A4452">KARTIK DUBEY — DATA SCIENTIST · AI ENGINEER · SYSTEMS ARCHITECT</text>
  <text x="1224" y="64" text-anchor="end" font-family="ui-monospace, Consolas, monospace" font-size="13" letter-spacing="3" fill="#3A4452">EST 2026 · V2.6.0</text>
  <text x="56" y="152" font-family="ui-monospace, Consolas, monospace" font-size="14" letter-spacing="3" fill="#7A8494">THE PERSONAL OPERATING SYSTEM</text>
  <text x="56" y="262" font-family="Fraunces, Georgia, 'Times New Roman', serif" font-size="110" font-weight="600" fill="#EDEFF2">JAY</text>
  <circle cx="322" cy="232" r="7" fill="#6FE7CE"/>
  <text x="60" y="316" font-family="ui-monospace, Consolas, monospace" font-size="15" letter-spacing="2" fill="#7A8494">AI · DATA · SYSTEMS — NAVI MUMBAI</text>
  <line x1="56" y1="340" x2="1224" y2="340" stroke="#202830" stroke-width="1"/>
  <text x="56" y="368" font-family="ui-monospace, Consolas, monospace" font-size="12" letter-spacing="2" fill="#3A4452">V2.6.0 · JAY · NO.01</text>
  <text x="1224" y="368" text-anchor="end" font-family="ui-monospace, Consolas, monospace" font-size="12" letter-spacing="2" fill="#3A4452">© KARTIK DUBEY — NAVI MUMBAI</text>
  <circle cx="940" cy="200" r="132" fill="url(#sphere)"/>
  <circle cx="940" cy="200" r="132" fill="none" stroke="url(#rimg)" stroke-width="2.4"/>
  <circle cx="940" cy="200" r="108.24" fill="none" stroke="#6FE7CE" stroke-width="0.8" opacity="0.16"/>
  <circle cx="940" cy="200" r="72.60000000000001" fill="none" stroke="#6FE7CE" stroke-width="0.6" opacity="0.12"/>
  <line x1="988.1" y1="221.8" x2="988.1" y2="117.0" stroke="#6FE7CE" stroke-width="0.9" opacity="0.18"/>
  <line x1="988.1" y1="221.8" x2="988.5" y2="296.4" stroke="#6FE7CE" stroke-width="0.9" opacity="0.16"/>
  <line x1="988.1" y1="221.8" x2="891.5" y2="273.2" stroke="#6FE7CE" stroke-width="0.9" opacity="0.18"/>
  <line x1="988.1" y1="221.8" x2="1048.2" y2="199.8" stroke="#6FE7CE" stroke-width="0.9" opacity="0.16"/>
  <line x1="988.1" y1="221.8" x2="891.2" y2="162.4" stroke="#6FE7CE" stroke-width="0.9" opacity="0.19"/>
  <line x1="988.1" y1="117.0" x2="988.5" y2="126.8" stroke="#6FE7CE" stroke-width="0.9" opacity="0.13"/>
  <line x1="988.1" y1="117.0" x2="891.5" y2="103.6" stroke="#6FE7CE" stroke-width="0.9" opacity="0.14"/>
  <line x1="988.1" y1="117.0" x2="1048.2" y2="199.8" stroke="#6FE7CE" stroke-width="0.9" opacity="0.15"/>
  <line x1="988.1" y1="117.0" x2="891.2" y2="162.4" stroke="#6FE7CE" stroke-width="0.9" opacity="0.17"/>
  <line x1="891.9" y1="283.0" x2="891.9" y2="178.2" stroke="#6FE7CE" stroke-width="0.9" opacity="0.08"/>
  <line x1="891.9" y1="283.0" x2="988.5" y2="296.4" stroke="#6FE7CE" stroke-width="0.9" opacity="0.12"/>
  <line x1="891.9" y1="283.0" x2="891.5" y2="273.2" stroke="#6FE7CE" stroke-width="0.9" opacity="0.13"/>
  <line x1="891.9" y1="283.0" x2="988.8" y2="237.6" stroke="#6FE7CE" stroke-width="0.9" opacity="0.09"/>
  <line x1="891.9" y1="283.0" x2="831.8" y2="200.2" stroke="#6FE7CE" stroke-width="0.9" opacity="0.11"/>
  <line x1="891.9" y1="178.2" x2="988.5" y2="126.8" stroke="#6FE7CE" stroke-width="0.9" opacity="0.08"/>
  <line x1="891.9" y1="178.2" x2="891.5" y2="103.6" stroke="#6FE7CE" stroke-width="0.9" opacity="0.10"/>
  <line x1="891.9" y1="178.2" x2="988.8" y2="237.6" stroke="#6FE7CE" stroke-width="0.9" opacity="0.07"/>
  <line x1="891.9" y1="178.2" x2="831.8" y2="200.2" stroke="#6FE7CE" stroke-width="0.9" opacity="0.10"/>
  <line x1="988.5" y1="296.4" x2="891.5" y2="273.2" stroke="#6FE7CE" stroke-width="0.9" opacity="0.15"/>
  <line x1="988.5" y1="296.4" x2="1048.2" y2="199.8" stroke="#6FE7CE" stroke-width="0.9" opacity="0.13"/>
  <line x1="988.5" y1="296.4" x2="988.8" y2="237.6" stroke="#6FE7CE" stroke-width="0.9" opacity="0.10"/>
  <line x1="891.5" y1="273.2" x2="891.2" y2="162.4" stroke="#6FE7CE" stroke-width="0.9" opacity="0.18"/>
  <line x1="891.5" y1="273.2" x2="831.8" y2="200.2" stroke="#6FE7CE" stroke-width="0.9" opacity="0.15"/>
  <line x1="988.5" y1="126.8" x2="891.5" y2="103.6" stroke="#6FE7CE" stroke-width="0.9" opacity="0.11"/>
  <line x1="988.5" y1="126.8" x2="1048.2" y2="199.8" stroke="#6FE7CE" stroke-width="0.9" opacity="0.11"/>
  <line x1="988.5" y1="126.8" x2="988.8" y2="237.6" stroke="#6FE7CE" stroke-width="0.9" opacity="0.08"/>
  <line x1="891.5" y1="103.6" x2="891.2" y2="162.4" stroke="#6FE7CE" stroke-width="0.9" opacity="0.16"/>
  <line x1="891.5" y1="103.6" x2="831.8" y2="200.2" stroke="#6FE7CE" stroke-width="0.9" opacity="0.13"/>
  <line x1="1048.2" y1="199.8" x2="988.8" y2="237.6" stroke="#6FE7CE" stroke-width="0.9" opacity="0.10"/>
  <line x1="891.2" y1="162.4" x2="831.8" y2="200.2" stroke="#6FE7CE" stroke-width="0.9" opacity="0.16"/>
  <circle cx="988.1" cy="221.8" r="1.4" fill="#6FE7CE" opacity="0.53"/>
  <circle cx="988.1" cy="117.0" r="1.4" fill="#6FE7CE" opacity="0.46"/>
  <circle cx="891.9" cy="283.0" r="1.4" fill="#6FE7CE" opacity="0.29"/>
  <circle cx="891.9" cy="178.2" r="1.4" fill="#6FE7CE" opacity="0.22"/>
  <circle cx="988.5" cy="296.4" r="1.4" fill="#6FE7CE" opacity="0.39"/>
  <circle cx="891.5" cy="273.2" r="1.4" fill="#6FE7CE" opacity="0.48"/>
  <circle cx="988.5" cy="126.8" r="1.4" fill="#6FE7CE" opacity="0.27"/>
  <circle cx="891.5" cy="103.6" r="1.4" fill="#6FE7CE" opacity="0.36"/>
  <circle cx="1048.2" cy="199.8" r="1.4" fill="#6FE7CE" opacity="0.38"/>
  <circle cx="891.2" cy="162.4" r="1.4" fill="#6FE7CE" opacity="0.52"/>
  <circle cx="988.8" cy="237.6" r="1.4" fill="#6FE7CE" opacity="0.23"/>
  <circle cx="831.8" cy="200.2" r="1.4" fill="#6FE7CE" opacity="0.37"/>
  <circle cx="940" cy="200" r="44" fill="url(#core)"/>
  <circle cx="940" cy="200" r="7" fill="#6FE7CE" opacity="0.95"/>
  <circle cx="1122.5" cy="200.1" r="1.2" fill="#6FE7CE" opacity="0.48"/><circle cx="786.8" cy="175.4" r="2.2" fill="#6FE7CE" opacity="0.39"/><circle cx="872.0" cy="79.8" r="1.3" fill="#6FE7CE" opacity="0.31"/><circle cx="894.8" cy="48.7" r="2.1" fill="#6FE7CE" opacity="0.35"/><circle cx="1096.8" cy="124.5" r="1.8" fill="#6FE7CE" opacity="0.58"/><circle cx="875.8" cy="78.3" r="2.5" fill="#6FE7CE" opacity="0.57"/><circle cx="831.1" cy="286.9" r="1.4" fill="#6FE7CE" opacity="0.20"/><circle cx="892.6" cy="339.4" r="2.6" fill="#6FE7CE" opacity="0.40"/><circle cx="916.5" cy="37.5" r="1.3" fill="#6FE7CE" opacity="0.40"/><circle cx="779.7" cy="191.9" r="2.5" fill="#6FE7CE" opacity="0.15"/><circle cx="835.7" cy="290.7" r="2.6" fill="#6FE7CE" opacity="0.38"/><circle cx="1020.9" cy="325.1" r="1.5" fill="#6FE7CE" opacity="0.33"/><circle cx="858.0" cy="310.8" r="1.2" fill="#6FE7CE" opacity="0.57"/><circle cx="766.3" cy="236.3" r="2.0" fill="#6FE7CE" opacity="0.38"/><circle cx="767.8" cy="195.9" r="1.6" fill="#6FE7CE" opacity="0.47"/><circle cx="938.8" cy="352.3" r="1.4" fill="#6FE7CE" opacity="0.32"/><circle cx="990.1" cy="42.5" r="2.4" fill="#6FE7CE" opacity="0.16"/><circle cx="816.0" cy="274.6" r="2.7" fill="#6FE7CE" opacity="0.23"/><circle cx="840.1" cy="100.5" r="1.9" fill="#6FE7CE" opacity="0.19"/><circle cx="1099.6" cy="134.2" r="2.5" fill="#6FE7CE" opacity="0.57"/><circle cx="950.8" cy="60.5" r="1.3" fill="#6FE7CE" opacity="0.16"/><circle cx="1109.1" cy="201.5" r="2.2" fill="#6FE7CE" opacity="0.36"/><circle cx="881.7" cy="91.4" r="1.2" fill="#6FE7CE" opacity="0.31"/><circle cx="1055.9" cy="117.7" r="0.8" fill="#6FE7CE" opacity="0.58"/><circle cx="820.9" cy="74.4" r="2.5" fill="#6FE7CE" opacity="0.21"/><circle cx="1103.7" cy="174.9" r="1.3" fill="#6FE7CE" opacity="0.23"/><circle cx="982.6" cy="346.4" r="2.3" fill="#6FE7CE" opacity="0.47"/><circle cx="903.3" cy="55.0" r="1.0" fill="#6FE7CE" opacity="0.58"/><circle cx="1057.3" cy="297.3" r="0.9" fill="#6FE7CE" opacity="0.56"/><circle cx="1059.6" cy="90.4" r="2.3" fill="#6FE7CE" opacity="0.33"/><circle cx="942.0" cy="334.2" r="1.6" fill="#6FE7CE" opacity="0.24"/><circle cx="790.3" cy="278.6" r="1.5" fill="#6FE7CE" opacity="0.43"/><circle cx="925.1" cy="79.7" r="1.6" fill="#6FE7CE" opacity="0.22"/><circle cx="869.9" cy="332.4" r="2.0" fill="#6FE7CE" opacity="0.56"/><circle cx="1071.4" cy="142.9" r="1.1" fill="#6FE7CE" opacity="0.37"/><circle cx="775.4" cy="152.1" r="1.7" fill="#6FE7CE" opacity="0.21"/><circle cx="799.0" cy="237.9" r="1.8" fill="#6FE7CE" opacity="0.40"/><circle cx="764.8" cy="193.3" r="2.2" fill="#6FE7CE" opacity="0.13"/><circle cx="889.9" cy="343.4" r="2.2" fill="#6FE7CE" opacity="0.27"/><circle cx="955.3" cy="354.6" r="0.9" fill="#6FE7CE" opacity="0.51"/><circle cx="1020.6" cy="73.9" r="2.1" fill="#6FE7CE" opacity="0.60"/><circle cx="1113.3" cy="221.4" r="2.2" fill="#6FE7CE" opacity="0.57"/><circle cx="1084.0" cy="230.9" r="1.0" fill="#6FE7CE" opacity="0.16"/><circle cx="1108.3" cy="207.8" r="1.2" fill="#6FE7CE" opacity="0.19"/><circle cx="990.8" cy="348.8" r="1.7" fill="#6FE7CE" opacity="0.62"/><circle cx="788.3" cy="261.9" r="1.6" fill="#6FE7CE" opacity="0.33"/><circle cx="1081.0" cy="244.0" r="2.7" fill="#6FE7CE" opacity="0.20"/><circle cx="1086.7" cy="132.7" r="1.2" fill="#6FE7CE" opacity="0.42"/><circle cx="1009.6" cy="315.8" r="2.0" fill="#6FE7CE" opacity="0.40"/><circle cx="755.6" cy="220.5" r="1.6" fill="#6FE7CE" opacity="0.28"/><circle cx="1082.2" cy="203.4" r="1.0" fill="#6FE7CE" opacity="0.24"/><circle cx="1096.5" cy="137.6" r="1.6" fill="#6FE7CE" opacity="0.55"/><circle cx="1112.3" cy="168.0" r="1.9" fill="#6FE7CE" opacity="0.29"/><circle cx="803.3" cy="282.0" r="1.9" fill="#6FE7CE" opacity="0.48"/><circle cx="853.7" cy="87.2" r="2.5" fill="#6FE7CE" opacity="0.54"/><circle cx="1100.8" cy="189.2" r="2.6" fill="#6FE7CE" opacity="0.61"/><circle cx="848.8" cy="302.9" r="2.5" fill="#6FE7CE" opacity="0.47"/><circle cx="926.2" cy="58.4" r="1.2" fill="#6FE7CE" opacity="0.24"/><circle cx="984.0" cy="92.2" r="2.3" fill="#6FE7CE" opacity="0.44"/><circle cx="900.3" cy="54.1" r="2.5" fill="#6FE7CE" opacity="0.40"/><circle cx="1047.9" cy="115.4" r="1.6" fill="#6FE7CE" opacity="0.32"/><circle cx="1004.2" cy="340.8" r="2.5" fill="#6FE7CE" opacity="0.53"/><circle cx="849.7" cy="312.9" r="1.0" fill="#6FE7CE" opacity="0.27"/><circle cx="1064.9" cy="138.6" r="1.6" fill="#6FE7CE" opacity="0.13"/><circle cx="876.2" cy="45.8" r="1.2" fill="#6FE7CE" opacity="0.59"/><circle cx="893.6" cy="70.9" r="2.0" fill="#6FE7CE" opacity="0.13"/><circle cx="1003.7" cy="80.1" r="1.0" fill="#6FE7CE" opacity="0.29"/><circle cx="899.7" cy="61.5" r="1.9" fill="#6FE7CE" opacity="0.51"/><circle cx="888.7" cy="71.5" r="1.0" fill="#6FE7CE" opacity="0.14"/><circle cx="825.0" cy="123.5" r="1.3" fill="#6FE7CE" opacity="0.23"/><circle cx="816.3" cy="110.4" r="1.3" fill="#6FE7CE" opacity="0.57"/><circle cx="1103.0" cy="250.9" r="2.3" fill="#6FE7CE" opacity="0.45"/><circle cx="989.4" cy="93.6" r="1.8" fill="#6FE7CE" opacity="0.53"/><circle cx="779.5" cy="263.1" r="2.2" fill="#6FE7CE" opacity="0.57"/><circle cx="1034.5" cy="109.8" r="1.1" fill="#6FE7CE" opacity="0.18"/><circle cx="1114.5" cy="147.1" r="0.9" fill="#6FE7CE" opacity="0.25"/><circle cx="1107.9" cy="149.4" r="1.3" fill="#6FE7CE" opacity="0.22"/><circle cx="1099.8" cy="223.3" r="1.1" fill="#6FE7CE" opacity="0.28"/><circle cx="789.1" cy="216.5" r="0.9" fill="#6FE7CE" opacity="0.17"/><circle cx="828.2" cy="108.9" r="2.2" fill="#6FE7CE" opacity="0.38"/><circle cx="891.2" cy="83.2" r="2.6" fill="#6FE7CE" opacity="0.51"/><circle cx="1108.4" cy="168.4" r="2.3" fill="#6FE7CE" opacity="0.21"/><circle cx="1099.5" cy="253.6" r="1.6" fill="#6FE7CE" opacity="0.39"/><circle cx="815.8" cy="296.9" r="0.9" fill="#6FE7CE" opacity="0.16"/><circle cx="844.3" cy="313.1" r="2.0" fill="#6FE7CE" opacity="0.18"/><circle cx="1074.5" cy="235.3" r="2.5" fill="#6FE7CE" opacity="0.14"/><circle cx="957.8" cy="59.4" r="2.5" fill="#6FE7CE" opacity="0.52"/><circle cx="1125.2" cy="212.3" r="2.0" fill="#6FE7CE" opacity="0.33"/><circle cx="1086.4" cy="223.9" r="2.2" fill="#6FE7CE" opacity="0.24"/><circle cx="1051.2" cy="74.1" r="1.7" fill="#6FE7CE" opacity="0.27"/>
  <line x1="750" y1="166" x2="724" y2="156" stroke="#6FE7CE" stroke-width="1" opacity="0.35"/><circle cx="750" cy="166" r="2.6" fill="#6FE7CE" opacity="0.9"/>
  <line x1="1134" y1="248" x2="1156" y2="256" stroke="#6FE7CE" stroke-width="1" opacity="0.35"/><circle cx="1134" cy="248" r="2.6" fill="#6FE7CE" opacity="0.9"/>
  <line x1="910" y1="28" x2="902" y2="6" stroke="#6FE7CE" stroke-width="1" opacity="0.35"/><circle cx="910" cy="28" r="2.6" fill="#6FE7CE" opacity="0.9"/>
</svg>